<svg xmlns="http://www.w3.org/2000/svg" viewBox="0 0 512 512" fill="none"><rect width="512" height="512" fill="#11151d"/><rect x="44" y="44" width="424" height="424" rx="112" fill="#1d2735" stroke="#35445a" stroke-width="6"/><g transform="translate(96 96) scale(6.6666667)">
  <g transform="translate(0 -4)" stroke="#76a9ff" stroke-width="2.2" stroke-linecap="round" stroke-linejoin="round">
    <path d="M20 16 5 14v8l14 2m10-8 14-2v8l-13 2"/>
    <path d="m21 22-9 17 8 3 8-18" fill="#1d2735"/>
    <path d="m27 21 12 14-6 6-13-16" fill="#1d2735"/>
    <path d="m35 30 4 5-6 6-4-5Z" fill="#11151d"/>
    <path d="m33 37 2-2" stroke="#b7c5dc" stroke-width="1.6"/>
    <path d="m20 16 8-1 3 8-7 5-7-6Z" fill="#1d2735"/>
    <path d="m21 19 6 4"/>
  </g>

</g></svg>
